<svg id="visual" viewBox="0 0 900 600" width="900" height="600" xmlns="http://www.w3.org/2000/svg" xmlns:xlink="http://www.w3.org/1999/xlink" version="1.1"><rect x="0" y="0" width="900" height="600" fill="#062028"></rect><defs><linearGradient id="grad1_0" x1="33.3%" y1="0%" x2="100%" y2="100%"><stop offset="20%" stop-color="#062028" stop-opacity="1"></stop><stop offset="80%" stop-color="#062028" stop-opacity="1"></stop></linearGradient></defs><defs><linearGradient id="grad2_0" x1="0%" y1="0%" x2="66.7%" y2="100%"><stop offset="20%" stop-color="#062028" stop-opacity="1"></stop><stop offset="80%" stop-color="#062028" stop-opacity="1"></stop></linearGradient></defs><g transform="translate(900, 0)"><path d="M0 405.6C-20.4 374.5 -40.8 343.5 -68.1 342.3C-95.3 341.1 -129.4 369.9 -151.2 364.9C-172.9 360 -182.3 321.4 -203.9 305.1C-225.5 288.9 -259.1 294.8 -285 285C-310.8 275.1 -328.8 249.4 -329.3 220C-329.8 190.6 -312.8 157.4 -325.2 134.7C-337.6 112 -379.5 99.8 -397.8 79.1C-416.1 58.4 -410.9 29.2 -405.6 0L0 0Z" fill="#A73579"></path></g><g transform="translate(0, 600)"><path d="M0 -405.6C25.3 -399.7 50.6 -393.7 77.3 -388.4C103.9 -383 131.8 -378.3 148.1 -357.5C164.4 -336.8 169 -300.2 192.8 -288.5C216.6 -276.9 259.6 -290.2 276.5 -276.5C293.3 -262.8 284 -222.1 297.7 -198.9C311.3 -175.7 347.9 -170 368.6 -152.7C389.4 -135.4 394.3 -106.5 397.8 -79.1C401.4 -51.8 403.5 -25.9 405.6 0L0 0Z" fill="#A73579"></path></g></svg>