<svg id="Layer_1" data-name="Layer 1" xmlns="http://www.w3.org/2000/svg" viewBox="0 0 1420.22 1599.16"><defs><style>.cls-1{fill:#70ceeb;}.cls-2{fill:none;stroke:#000;stroke-miterlimit:10;}</style></defs><title>logo</title><path class="cls-1" d="M558,1658c-39-10-76-23-116-34-3,0-6-1-9-2-11-3-20-6-30-13-3-1-5-2-8-3-16-10-32-17-48-28-27-18-49-34-74-54-66-55-118-115-162-189-26-44-47-87-64-134C22,1129,9,1055,6,980,2,863,28,747,83,641c61-117,152-211,270-272,73-37,149-60,230-65,57-3,113,1,170,15,36,10,69,20,102,37,24,13,46,24,69,40,79,55,136,124,171,210,28,70,40,144,30,220a422.06,422.06,0,0,1-27,100c-18,42-42,80-74,114-26,27-54,47-86,65-45,23-93,36-143,36-39-1-78-8-114-24-63-29-113-82-131-151a212.85,212.85,0,0,1-3-94c3-16,9-29,14-44,6-15,15-28,23-43,8-12,15-23,19-37,1-3,0-7-1-10-3-8-11-13-19-15-26-5-51,1-74,13a53.88,53.88,0,0,1-13,7,220.24,220.24,0,0,0-54,47c-34,41-52,88-59,140-8,61,2,121,25,178,16,38,38,72,65,104,69,81,161,128,265,146,115,19,227-2,329-56,91-49,162-116,218-205,38-61,63-122,79-192,25-107,22-210-6-316-25-99-68-185-132-265-21-25-40-47-63-70-31-30-61-54-96-80-66-46-132-78-204-107-2-1-6-1-8-4,27,4,51,13,78,20,22,6,42,14,64,19,11,2,20,7,30,13,3,1,5,2,8,3,133,72,238,179,307,313,68,131,96,275,77,421-17,126-63,241-145,342-108,133-261,215-428,226-94,6-187-11-272-52-70-35-130-81-179-145-40-53-66-107-82-171-23-100-13-200,36-290,33-62,81-110,143-143,30-15,61-27,95-32,60-9,120-2,174,26a274.52,274.52,0,0,1,71,56c21,23,35,50,45,79,10,31,12,62,7,95-7,39-22,71-44,104-7,12-15,23-13,37,2,9,9,13,17,16,32,9,62-3,90-19a146.29,146.29,0,0,1,13-9c44-32,72-76,88-127,20-65,19-133-2-198a405.66,405.66,0,0,0-89-149c-37-40-81-69-129-93-105-50-221-58-334-29-68,18-127,46-185,88C182,547,110,658,73,789c-23,83-29,165-20,249,16,141,73,270,166,380s211,186,343,236c4,2,9,3,12,7-6,0-10-3-16-3Z" transform="translate(-5.1 -62.34)"/><path class="cls-2" d="M558,1658c-39-10-76-23-116-34-3,0-6-1-9-2-11-3-20-6-30-13-3-1-5-2-8-3-16-10-32-17-48-28-27-18-49-34-74-54-66-55-118-115-162-189-26-44-47-87-64-134C22,1129,9,1055,6,980,2,863,28,747,83,641c61-117,152-211,270-272,73-37,149-60,230-65,57-3,113,1,170,15,36,10,69,20,102,37,24,13,46,24,69,40,79,55,136,124,171,210,28,70,40,144,30,220a422.06,422.06,0,0,1-27,100c-18,42-42,80-74,114-26,27-54,47-86,65-45,23-93,36-143,36-39-1-78-8-114-24-63-29-113-82-131-151a212.85,212.85,0,0,1-3-94c3-16,9-29,14-44,6-15,15-28,23-43,8-12,15-23,19-37,1-3,0-7-1-10-3-8-11-13-19-15-26-5-51,1-74,13a53.88,53.88,0,0,1-13,7,220.24,220.24,0,0,0-54,47c-34,41-52,88-59,140-8,61,2,121,25,178,16,38,38,72,65,104,69,81,161,128,265,146,115,19,227-2,329-56,91-49,162-116,218-205,38-61,63-122,79-192,25-107,22-210-6-316-25-99-68-185-132-265-21-25-40-47-63-70-31-30-61-54-96-80-66-46-132-78-204-107-2-1-6-1-8-4,27,4,51,13,78,20,22,6,42,14,64,19,11,2,20,7,30,13,3,1,5,2,8,3,133,72,238,179,307,313,68,131,96,275,77,421-17,126-63,241-145,342-108,133-261,215-428,226-94,6-187-11-272-52-70-35-130-81-179-145-40-53-66-107-82-171-23-100-13-200,36-290,33-62,81-110,143-143,30-15,61-27,95-32,60-9,120-2,174,26a274.52,274.52,0,0,1,71,56c21,23,35,50,45,79,10,31,12,62,7,95-7,39-22,71-44,104-7,12-15,23-13,37,2,9,9,13,17,16,32,9,62-3,90-19a146.29,146.29,0,0,1,13-9c44-32,72-76,88-127,20-65,19-133-2-198a405.66,405.66,0,0,0-89-149c-37-40-81-69-129-93-105-50-221-58-334-29-68,18-127,46-185,88C182,547,110,658,73,789c-23,83-29,165-20,249,16,141,73,270,166,380s211,186,343,236c4,2,9,3,12,7-6,0-10-3-16-3Z" transform="translate(-5.1 -62.34)"/></svg>