<svg id="visual" viewBox="0 0 900 600" width="900" height="600" xmlns="http://www.w3.org/2000/svg" xmlns:xlink="http://www.w3.org/1999/xlink" version="1.1"><rect x="0" y="0" width="900" height="600" fill="#001220"></rect><path d="M0 489L21.5 488.2C43 487.3 86 485.7 128.8 477.3C171.7 469 214.3 454 257.2 449.8C300 445.7 343 452.3 385.8 462.3C428.7 472.3 471.3 485.7 514.2 482.8C557 480 600 461 642.8 457C685.7 453 728.3 464 771.2 470.5C814 477 857 479 878.5 480L900 481L900 601L878.5 601C857 601 814 601 771.2 601C728.3 601 685.7 601 642.8 601C600 601 557 601 514.2 601C471.3 601 428.7 601 385.8 601C343 601 300 601 257.2 601C214.3 601 171.7 601 128.8 601C86 601 43 601 21.5 601L0 601Z" fill="#6e5c96"></path><path d="M0 511L21.5 504.5C43 498 86 485 128.8 486.7C171.7 488.3 214.3 504.7 257.2 511.8C300 519 343 517 385.8 507.5C428.7 498 471.3 481 514.2 480.3C557 479.7 600 495.3 642.8 498.2C685.7 501 728.3 491 771.2 484.7C814 478.3 857 475.7 878.5 474.3L900 473L900 601L878.5 601C857 601 814 601 771.2 601C728.3 601 685.7 601 642.8 601C600 601 557 601 514.2 601C471.3 601 428.7 601 385.8 601C343 601 300 601 257.2 601C214.3 601 171.7 601 128.8 601C86 601 43 601 21.5 601L0 601Z" fill="#51639a"></path><path d="M0 514L21.5 518.8C43 523.7 86 533.3 128.8 530.7C171.7 528 214.3 513 257.2 504.8C300 496.7 343 495.3 385.8 501C428.7 506.7 471.3 519.3 514.2 526.8C557 534.3 600 536.7 642.8 530.7C685.7 524.7 728.3 510.3 771.2 507.5C814 504.7 857 513.3 878.5 517.7L900 522L900 601L878.5 601C857 601 814 601 771.2 601C728.3 601 685.7 601 642.8 601C600 601 557 601 514.2 601C471.3 601 428.7 601 385.8 601C343 601 300 601 257.2 601C214.3 601 171.7 601 128.8 601C86 601 43 601 21.5 601L0 601Z" fill="#336897"></path><path d="M0 564L21.5 560C43 556 86 548 128.8 546.3C171.7 544.7 214.3 549.3 257.2 551.5C300 553.7 343 553.3 385.8 555.2C428.7 557 471.3 561 514.2 561.2C557 561.3 600 557.7 642.8 554C685.7 550.3 728.3 546.7 771.2 548.5C814 550.3 857 557.7 878.5 561.3L900 565L900 601L878.5 601C857 601 814 601 771.2 601C728.3 601 685.7 601 642.8 601C600 601 557 601 514.2 601C471.3 601 428.7 601 385.8 601C343 601 300 601 257.2 601C214.3 601 171.7 601 128.8 601C86 601 43 601 21.5 601L0 601Z" fill="#136b8e"></path><path d="M0 586L21.5 585C43 584 86 582 128.8 582.5C171.7 583 214.3 586 257.2 586.7C300 587.3 343 585.7 385.8 582.2C428.7 578.7 471.3 573.3 514.2 573.2C557 573 600 578 642.8 575C685.7 572 728.3 561 771.2 559C814 557 857 564 878.5 567.5L900 571L900 601L878.5 601C857 601 814 601 771.2 601C728.3 601 685.7 601 642.8 601C600 601 557 601 514.2 601C471.3 601 428.7 601 385.8 601C343 601 300 601 257.2 601C214.3 601 171.7 601 128.8 601C86 601 43 601 21.5 601L0 601Z" fill="#006c82"></path></svg>