<svg id="visual" viewBox="0 0 900 600" width="900" height="600" xmlns="http://www.w3.org/2000/svg" version="1.1"><g stroke-width="1" stroke-linejoin="bevel"><path d="M436 333L413.5 389L488.5 412Z" fill="#2b6486" stroke="#2b6486"></path><path d="M488.5 412L523 366L436 333Z" fill="#25506a" stroke="#25506a"></path><path d="M436 333L330.5 310L413.5 389Z" fill="#21465c" stroke="#21465c"></path><path d="M523 366L494.5 229L436 333Z" fill="#060e13" stroke="#060e13"></path><path d="M436 333L314.5 270L330.5 310Z" fill="#2e6f95" stroke="#2e6f95"></path><path d="M523 366L560.5 262L494.5 229Z" fill="#13212a" stroke="#13212a"></path><path d="M353.5 492L501.5 522L488.5 412Z" fill="#21465c" stroke="#21465c"></path><path d="M611 559L677 386L523 366Z" fill="#2e6f95" stroke="#2e6f95"></path><path d="M523 366L649 297L560.5 262Z" fill="#21465c" stroke="#21465c"></path><path d="M353.5 492L488.5 412L413.5 389Z" fill="#25506a" stroke="#25506a"></path><path d="M264 375L353.5 492L413.5 389Z" fill="#25506a" stroke="#25506a"></path><path d="M427 169L314.5 270L436 333Z" fill="#13212a" stroke="#13212a"></path><path d="M330.5 310L264 375L413.5 389Z" fill="#21465c" stroke="#21465c"></path><path d="M455 600L525 548L501.5 522Z" fill="#2b6486" stroke="#2b6486"></path><path d="M611 559L523 366L488.5 412Z" fill="#1a3342" stroke="#1a3342"></path><path d="M222 335L264 375L330.5 310Z" fill="#13212a" stroke="#13212a"></path><path d="M677 386L649 297L523 366Z" fill="#060e13" stroke="#060e13"></path><path d="M619.5 166L427 169L494.5 229Z" fill="#0f181e" stroke="#0f181e"></path><path d="M619.5 166L494.5 229L560.5 262Z" fill="#2b6486" stroke="#2b6486"></path><path d="M494.5 229L427 169L436 333Z" fill="#25506a" stroke="#25506a"></path><path d="M611 559L488.5 412L501.5 522Z" fill="#2e6f95" stroke="#2e6f95"></path><path d="M353.5 492L455 600L501.5 522Z" fill="#2e6f95" stroke="#2e6f95"></path><path d="M542.5 600L611 559L525 548Z" fill="#2b6486" stroke="#2b6486"></path><path d="M525 548L611 559L501.5 522Z" fill="#1e3c4f" stroke="#1e3c4f"></path><path d="M160 158L222 335L314.5 270Z" fill="#285a78" stroke="#285a78"></path><path d="M314.5 270L222 335L330.5 310Z" fill="#21465c" stroke="#21465c"></path><path d="M229 600L337.5 600L353.5 492Z" fill="#25506a" stroke="#25506a"></path><path d="M455 600L542.5 600L525 548Z" fill="#2e6f95" stroke="#2e6f95"></path><path d="M353.5 492L337.5 600L455 600Z" fill="#0f181e" stroke="#0f181e"></path><path d="M172 452L353.5 492L264 375Z" fill="#2e6f95" stroke="#2e6f95"></path><path d="M684 204L619.5 166L649 297Z" fill="#060e13" stroke="#060e13"></path><path d="M649 297L619.5 166L560.5 262Z" fill="#0f181e" stroke="#0f181e"></path><path d="M542.5 600L601 600L611 559Z" fill="#25506a" stroke="#25506a"></path><path d="M611 559L728.5 472L677 386Z" fill="#21465c" stroke="#21465c"></path><path d="M725.5 259L684 204L649 297Z" fill="#25506a" stroke="#25506a"></path><path d="M797.5 600L728.5 472L611 559Z" fill="#1e3c4f" stroke="#1e3c4f"></path><path d="M677 386L725.5 259L649 297Z" fill="#0f181e" stroke="#0f181e"></path><path d="M781.5 283L725.5 259L677 386Z" fill="#060e13" stroke="#060e13"></path><path d="M298.5 124L281 143L427 169Z" fill="#2e6f95" stroke="#2e6f95"></path><path d="M427 169L281 143L314.5 270Z" fill="#25506a" stroke="#25506a"></path><path d="M728.5 472L743.5 447L677 386Z" fill="#2b6486" stroke="#2b6486"></path><path d="M117.5 324L172 452L222 335Z" fill="#2b6486" stroke="#2b6486"></path><path d="M222 335L172 452L264 375Z" fill="#13212a" stroke="#13212a"></path><path d="M450 32L298.5 124L427 169Z" fill="#172936" stroke="#172936"></path><path d="M172 452L229 600L353.5 492Z" fill="#060e13" stroke="#060e13"></path><path d="M795.5 159L723 171L725.5 259Z" fill="#21465c" stroke="#21465c"></path><path d="M725.5 259L723 171L684 204Z" fill="#25506a" stroke="#25506a"></path><path d="M684 204L723 171L619.5 166Z" fill="#1e3c4f" stroke="#1e3c4f"></path><path d="M619.5 166L450 32L427 169Z" fill="#172936" stroke="#172936"></path><path d="M743.5 447L781.5 283L677 386Z" fill="#21465c" stroke="#21465c"></path><path d="M453 0L450 32L618.5 0Z" fill="#172936" stroke="#172936"></path><path d="M160 158L117.5 324L222 335Z" fill="#060e13" stroke="#060e13"></path><path d="M172 452L117.5 600L229 600Z" fill="#060e13" stroke="#060e13"></path><path d="M281 143L160 158L314.5 270Z" fill="#13212a" stroke="#13212a"></path><path d="M174.5 65L160 158L281 143Z" fill="#13212a" stroke="#13212a"></path><path d="M174.5 65L281 143L298.5 124Z" fill="#21465c" stroke="#21465c"></path><path d="M618.5 0L450 32L619.5 166Z" fill="#2e6f95" stroke="#2e6f95"></path><path d="M450 32L333.5 0L298.5 124Z" fill="#21465c" stroke="#21465c"></path><path d="M58.5 406L172 452L117.5 324Z" fill="#1a3342" stroke="#1a3342"></path><path d="M58.5 406L73.5 460L172 452Z" fill="#172936" stroke="#172936"></path><path d="M453 0L333.5 0L450 32Z" fill="#2b6486" stroke="#2b6486"></path><path d="M781.5 283L795.5 159L725.5 259Z" fill="#285a78" stroke="#285a78"></path><path d="M639 0L618.5 0L619.5 166Z" fill="#2b6486" stroke="#2b6486"></path><path d="M0 386L58.5 406L0 323Z" fill="#25506a" stroke="#25506a"></path><path d="M728.5 472L900 465L743.5 447Z" fill="#21465c" stroke="#21465c"></path><path d="M743.5 447L900 335L781.5 283Z" fill="#0f181e" stroke="#0f181e"></path><path d="M781.5 283L900 274L795.5 159Z" fill="#2e6f95" stroke="#2e6f95"></path><path d="M601 600L797.5 600L611 559Z" fill="#285a78" stroke="#285a78"></path><path d="M639 0L619.5 166L723 171Z" fill="#2e6f95" stroke="#2e6f95"></path><path d="M73.5 460L117.5 600L172 452Z" fill="#285a78" stroke="#285a78"></path><path d="M0 139L68.5 240L160 158Z" fill="#1a3342" stroke="#1a3342"></path><path d="M160 158L68.5 240L117.5 324Z" fill="#21465c" stroke="#21465c"></path><path d="M802.5 0L639 0L723 171Z" fill="#25506a" stroke="#25506a"></path><path d="M333.5 0L174.5 65L298.5 124Z" fill="#2b6486" stroke="#2b6486"></path><path d="M900 454L900 335L743.5 447Z" fill="#172936" stroke="#172936"></path><path d="M900 465L900 454L743.5 447Z" fill="#25506a" stroke="#25506a"></path><path d="M797.5 600L900 465L728.5 472Z" fill="#13212a" stroke="#13212a"></path><path d="M900 335L900 274L781.5 283Z" fill="#25506a" stroke="#25506a"></path><path d="M58.5 406L0 475L73.5 460Z" fill="#1e3c4f" stroke="#1e3c4f"></path><path d="M73.5 460L0 600L117.5 600Z" fill="#21465c" stroke="#21465c"></path><path d="M0 323L58.5 406L117.5 324Z" fill="#25506a" stroke="#25506a"></path><path d="M0 256L0 323L68.5 240Z" fill="#21465c" stroke="#21465c"></path><path d="M68.5 240L0 323L117.5 324Z" fill="#1a3342" stroke="#1a3342"></path><path d="M333.5 0L177 0L174.5 65Z" fill="#25506a" stroke="#25506a"></path><path d="M0 139L0 256L68.5 240Z" fill="#1e3c4f" stroke="#1e3c4f"></path><path d="M0 386L0 475L58.5 406Z" fill="#1a3342" stroke="#1a3342"></path><path d="M0 139L160 158L174.5 65Z" fill="#285a78" stroke="#285a78"></path><path d="M797.5 600L900 600L900 465Z" fill="#285a78" stroke="#285a78"></path><path d="M900 274L900 130L795.5 159Z" fill="#2b6486" stroke="#2b6486"></path><path d="M795.5 159L802.5 0L723 171Z" fill="#1a3342" stroke="#1a3342"></path><path d="M900 130L802.5 0L795.5 159Z" fill="#0f181e" stroke="#0f181e"></path><path d="M0 475L0 600L73.5 460Z" fill="#21465c" stroke="#21465c"></path><path d="M34.5 0L0 139L174.5 65Z" fill="#285a78" stroke="#285a78"></path><path d="M177 0L34.5 0L174.5 65Z" fill="#2e6f95" stroke="#2e6f95"></path><path d="M900 130L900 0L802.5 0Z" fill="#25506a" stroke="#25506a"></path><path d="M34.5 0L0 0L0 139Z" fill="#1e3c4f" stroke="#1e3c4f"></path></g></svg>